<svg width="157" height="138" viewBox="0 0 157 138" fill="none" xmlns="http://www.w3.org/2000/svg">
<g opacity="0.8" clip-path="url(#clip0_2234_8808)">
<path d="M5.3356 40.6121C5.3356 42.1315 4.19226 43.2711 2.6678 43.2711C1.14334 43.2711 0 42.1315 0 40.6121C0 39.0927 1.14334 37.9531 2.6678 37.9531C4.19226 37.9531 5.3356 39.2193 5.3356 40.6121Z" fill="white"/>
<path d="M28.0753 40.6121C28.0753 42.1315 26.932 43.2711 25.4075 43.2711C23.8831 43.2711 22.7397 42.1315 22.7397 40.6121C22.7397 39.0927 23.8831 37.9531 25.4075 37.9531C26.805 37.9531 28.0753 39.2193 28.0753 40.6121Z" fill="white"/>
<path d="M50.6881 40.6121C50.6881 42.1315 49.5448 43.2711 48.0203 43.2711C46.4959 43.2711 45.3525 42.1315 45.3525 40.6121C45.3525 39.0927 46.4959 37.9531 48.0203 37.9531C49.5448 37.9531 50.6881 39.2193 50.6881 40.6121Z" fill="white"/>
<path d="M73.4279 40.6121C73.4279 42.1315 72.2845 43.2711 70.7601 43.2711C69.2356 43.2711 68.0923 42.1315 68.0923 40.6121C68.0923 39.0927 69.2356 37.9531 70.7601 37.9531C72.2845 37.9531 73.4279 39.2193 73.4279 40.6121Z" fill="white"/>
<path d="M96.1676 40.6121C96.1676 42.1315 95.0243 43.2711 93.4998 43.2711C91.9754 43.2711 90.832 42.1315 90.832 40.6121C90.832 39.0927 91.9754 37.9531 93.4998 37.9531C94.8972 37.9531 96.1676 39.2193 96.1676 40.6121Z" fill="white"/>
<path d="M118.908 40.6121C118.908 42.1315 117.765 43.2711 116.24 43.2711C114.716 43.2711 113.572 42.1315 113.572 40.6121C113.572 39.0927 114.716 37.9531 116.24 37.9531C117.765 37.9531 118.908 39.2193 118.908 40.6121Z" fill="white"/>
<path d="M141.52 40.6121C141.52 42.1315 140.377 43.2711 138.852 43.2711C137.328 43.2711 136.185 42.1315 136.185 40.6121C136.185 39.0927 137.328 37.9531 138.852 37.9531C140.377 37.9531 141.52 39.2193 141.52 40.6121Z" fill="white"/>
<path d="M5.3356 59.4783C5.3356 60.9977 4.19226 62.1373 2.6678 62.1373C1.14334 62.1373 0 60.9977 0 59.4783C0 57.9589 1.14334 56.8193 2.6678 56.8193C4.19226 56.8193 5.3356 57.9589 5.3356 59.4783Z" fill="white"/>
<path d="M28.0753 59.4783C28.0753 60.9977 26.932 62.1373 25.4075 62.1373C23.8831 62.1373 22.7397 60.9977 22.7397 59.4783C22.7397 57.9589 23.8831 56.8193 25.4075 56.8193C26.805 56.8193 28.0753 57.9589 28.0753 59.4783Z" fill="white"/>
<path d="M50.6881 59.4783C50.6881 60.9977 49.5448 62.1373 48.0203 62.1373C46.4959 62.1373 45.3525 60.9977 45.3525 59.4783C45.3525 57.9589 46.4959 56.8193 48.0203 56.8193C49.5448 56.8193 50.6881 57.9589 50.6881 59.4783Z" fill="white"/>
<path d="M73.4279 59.4783C73.4279 60.9977 72.2845 62.1373 70.7601 62.1373C69.2356 62.1373 68.0923 60.9977 68.0923 59.4783C68.0923 57.9589 69.2356 56.8193 70.7601 56.8193C72.2845 56.8193 73.4279 57.9589 73.4279 59.4783Z" fill="white"/>
<path d="M96.1676 59.4783C96.1676 60.9977 95.0243 62.1373 93.4998 62.1373C91.9754 62.1373 90.832 60.9977 90.832 59.4783C90.832 57.9589 91.9754 56.8193 93.4998 56.8193C94.8972 56.8193 96.1676 57.9589 96.1676 59.4783Z" fill="white"/>
<path d="M118.908 59.4783C118.908 60.9977 117.765 62.1373 116.24 62.1373C114.716 62.1373 113.572 60.9977 113.572 59.4783C113.572 57.9589 114.716 56.8193 116.24 56.8193C117.765 56.8193 118.908 57.9589 118.908 59.4783Z" fill="white"/>
<path d="M141.52 59.4783C141.52 60.9977 140.377 62.1373 138.852 62.1373C137.328 62.1373 136.185 60.9977 136.185 59.4783C136.185 57.9589 137.328 56.8193 138.852 56.8193C140.377 56.8193 141.52 57.9589 141.52 59.4783Z" fill="white"/>
<path d="M5.3356 3.00662C5.3356 4.52603 4.19226 5.66559 2.6678 5.66559C1.14334 5.66559 0 4.52603 0 3.00662C0 1.48721 1.14334 0.347656 2.6678 0.347656C4.19226 0.347656 5.3356 1.48721 5.3356 3.00662Z" fill="white"/>
<path d="M28.0753 3.00662C28.0753 4.52603 26.932 5.66559 25.4075 5.66559C23.8831 5.66559 22.7397 4.52603 22.7397 3.00662C22.7397 1.48721 23.8831 0.347656 25.4075 0.347656C26.805 0.347656 28.0753 1.48721 28.0753 3.00662Z" fill="white"/>
<path d="M50.6881 3.00662C50.6881 4.52603 49.5448 5.66559 48.0203 5.66559C46.4959 5.66559 45.3525 4.52603 45.3525 3.00662C45.3525 1.48721 46.6229 0.347656 48.0203 0.347656C49.5448 0.347656 50.6881 1.48721 50.6881 3.00662Z" fill="white"/>
<path d="M73.4279 3.00662C73.4279 4.52603 72.2845 5.66559 70.7601 5.66559C69.2356 5.66559 68.0923 4.52603 68.0923 3.00662C68.0923 1.48721 69.3627 0.347656 70.7601 0.347656C72.1575 0.347656 73.4279 1.48721 73.4279 3.00662Z" fill="white"/>
<path d="M96.1676 3.00662C96.1676 4.52603 95.0243 5.66559 93.4998 5.66559C91.9754 5.66559 90.832 4.52603 90.832 3.00662C90.832 1.48721 91.9754 0.347656 93.4998 0.347656C94.8972 0.347656 96.1676 1.48721 96.1676 3.00662Z" fill="white"/>
<path d="M118.908 3.00662C118.908 4.52603 117.765 5.66559 116.24 5.66559C114.716 5.66559 113.572 4.52603 113.572 3.00662C113.572 1.48721 114.716 0.347656 116.24 0.347656C117.765 0.347656 118.908 1.48721 118.908 3.00662Z" fill="white"/>
<path d="M141.52 3.00662C141.52 4.52603 140.377 5.66559 138.852 5.66559C137.328 5.66559 136.185 4.52603 136.185 3.00662C136.185 1.48721 137.328 0.347656 138.852 0.347656C140.377 0.347656 141.52 1.48721 141.52 3.00662Z" fill="white"/>
<path d="M5.3356 21.8728C5.3356 23.3922 4.19226 24.5318 2.6678 24.5318C1.14334 24.5318 0 23.2656 0 21.8728C0 20.3534 1.14334 19.2139 2.6678 19.2139C4.19226 19.2139 5.3356 20.3534 5.3356 21.8728Z" fill="white"/>
<path d="M28.0753 21.8728C28.0753 23.3922 26.932 24.5318 25.4075 24.5318C23.8831 24.5318 22.7397 23.3922 22.7397 21.8728C22.7397 20.3534 23.8831 19.2139 25.4075 19.2139C26.805 19.2139 28.0753 20.3534 28.0753 21.8728Z" fill="white"/>
<path d="M50.6881 21.8728C50.6881 23.3922 49.5448 24.5318 48.0203 24.5318C46.4959 24.5318 45.3525 23.3922 45.3525 21.8728C45.3525 20.3534 46.4959 19.2139 48.0203 19.2139C49.5448 19.2139 50.6881 20.3534 50.6881 21.8728Z" fill="white"/>
<path d="M73.4279 21.8728C73.4279 23.3922 72.2845 24.5318 70.7601 24.5318C69.2356 24.5318 68.0923 23.3922 68.0923 21.8728C68.0923 20.3534 69.2356 19.2139 70.7601 19.2139C72.2845 19.2139 73.4279 20.3534 73.4279 21.8728Z" fill="white"/>
<path d="M96.1676 21.8728C96.1676 23.3922 95.0243 24.5318 93.4998 24.5318C91.9754 24.5318 90.832 23.3922 90.832 21.8728C90.832 20.3534 91.9754 19.2139 93.4998 19.2139C94.8972 19.2139 96.1676 20.3534 96.1676 21.8728Z" fill="white"/>
<path d="M118.908 21.8728C118.908 23.3922 117.765 24.5318 116.24 24.5318C114.716 24.5318 113.572 23.3922 113.572 21.8728C113.572 20.3534 114.716 19.2139 116.24 19.2139C117.765 19.2139 118.908 20.3534 118.908 21.8728Z" fill="white"/>
<path d="M141.52 21.8728C141.52 23.3922 140.377 24.5318 138.852 24.5318C137.328 24.5318 136.185 23.3922 136.185 21.8728C136.185 20.3534 137.328 19.2139 138.852 19.2139C140.377 19.2139 141.52 20.3534 141.52 21.8728Z" fill="white"/>
<path d="M5.3356 78.2176C5.3356 79.737 4.19226 80.8765 2.6678 80.8765C1.14334 80.8765 0 79.737 0 78.2176C0 76.6981 1.14334 75.5586 2.6678 75.5586C4.19226 75.5586 5.3356 76.8248 5.3356 78.2176Z" fill="white"/>
<path d="M28.0753 78.2176C28.0753 79.737 26.932 80.8765 25.4075 80.8765C23.8831 80.8765 22.7397 79.737 22.7397 78.2176C22.7397 76.6981 23.8831 75.5586 25.4075 75.5586C26.805 75.5586 28.0753 76.8248 28.0753 78.2176Z" fill="white"/>
<path d="M50.6881 78.2176C50.6881 79.737 49.5448 80.8765 48.0203 80.8765C46.4959 80.8765 45.3525 79.737 45.3525 78.2176C45.3525 76.6981 46.4959 75.5586 48.0203 75.5586C49.5448 75.5586 50.6881 76.8248 50.6881 78.2176Z" fill="white"/>
<path d="M73.4279 78.2176C73.4279 79.737 72.2845 80.8765 70.7601 80.8765C69.2356 80.8765 68.0923 79.737 68.0923 78.2176C68.0923 76.6981 69.2356 75.5586 70.7601 75.5586C72.2845 75.5586 73.4279 76.8248 73.4279 78.2176Z" fill="white"/>
<path d="M96.1676 78.2176C96.1676 79.737 95.0243 80.8765 93.4998 80.8765C91.9754 80.8765 90.832 79.737 90.832 78.2176C90.832 76.6981 91.9754 75.5586 93.4998 75.5586C94.8972 75.5586 96.1676 76.8248 96.1676 78.2176Z" fill="white"/>
<path d="M118.908 78.2176C118.908 79.737 117.765 80.8765 116.24 80.8765C114.716 80.8765 113.572 79.737 113.572 78.2176C113.572 76.6981 114.716 75.5586 116.24 75.5586C117.765 75.5586 118.908 76.8248 118.908 78.2176Z" fill="white"/>
<path d="M141.52 78.2176C141.52 79.737 140.377 80.8765 138.852 80.8765C137.328 80.8765 136.185 79.737 136.185 78.2176C136.185 76.6981 137.328 75.5586 138.852 75.5586C140.377 75.5586 141.52 76.8248 141.52 78.2176Z" fill="white"/>
<path d="M5.3356 97.0838C5.3356 98.6032 4.19226 99.7427 2.6678 99.7427C1.14334 99.7427 0 98.6032 0 97.0838C0 95.5644 1.14334 94.4248 2.6678 94.4248C4.19226 94.4248 5.3356 95.5644 5.3356 97.0838Z" fill="white"/>
<path d="M28.0753 97.0838C28.0753 98.6032 26.932 99.7427 25.4075 99.7427C23.8831 99.7427 22.7397 98.6032 22.7397 97.0838C22.7397 95.5644 23.8831 94.4248 25.4075 94.4248C26.805 94.4248 28.0753 95.5644 28.0753 97.0838Z" fill="white"/>
<path d="M50.6881 97.0838C50.6881 98.6032 49.5448 99.7427 48.0203 99.7427C46.4959 99.7427 45.3525 98.6032 45.3525 97.0838C45.3525 95.5644 46.4959 94.4248 48.0203 94.4248C49.5448 94.4248 50.6881 95.5644 50.6881 97.0838Z" fill="white"/>
<path d="M70.7601 99.7427C72.2335 99.7427 73.4279 98.5523 73.4279 97.0838C73.4279 95.6153 72.2335 94.4248 70.7601 94.4248C69.2867 94.4248 68.0923 95.6153 68.0923 97.0838C68.0923 98.5523 69.2867 99.7427 70.7601 99.7427Z" fill="white"/>
<path d="M96.1676 97.0838C96.1676 98.6032 95.0243 99.7427 93.4998 99.7427C91.9754 99.7427 90.832 98.6032 90.832 97.0838C90.832 95.5644 91.9754 94.4248 93.4998 94.4248C94.8972 94.4248 96.1676 95.5644 96.1676 97.0838Z" fill="white"/>
<path d="M118.908 97.0838C118.908 98.6032 117.765 99.7427 116.24 99.7427C114.716 99.7427 113.572 98.6032 113.572 97.0838C113.572 95.5644 114.716 94.4248 116.24 94.4248C117.765 94.4248 118.908 95.5644 118.908 97.0838Z" fill="white"/>
<path d="M141.52 97.0838C141.52 98.6032 140.377 99.7427 138.852 99.7427C137.328 99.7427 136.185 98.6032 136.185 97.0838C136.185 95.5644 137.328 94.4248 138.852 94.4248C140.377 94.4248 141.52 95.5644 141.52 97.0838Z" fill="white"/>
<path d="M5.3356 115.949C5.3356 117.468 4.19226 118.608 2.6678 118.608C1.14334 118.608 0 117.468 0 115.949C0 114.43 1.14334 113.29 2.6678 113.29C4.19226 113.29 5.3356 114.43 5.3356 115.949Z" fill="white"/>
<path d="M28.0753 115.949C28.0753 117.468 26.932 118.608 25.4075 118.608C23.8831 118.608 22.7397 117.468 22.7397 115.949C22.7397 114.43 23.8831 113.29 25.4075 113.29C26.805 113.29 28.0753 114.43 28.0753 115.949Z" fill="white"/>
<path d="M50.6881 115.949C50.6881 117.468 49.5448 118.608 48.0203 118.608C46.4959 118.608 45.3525 117.468 45.3525 115.949C45.3525 114.43 46.4959 113.29 48.0203 113.29C49.5448 113.29 50.6881 114.43 50.6881 115.949Z" fill="white"/>
<path d="M73.4279 115.949C73.4279 117.468 72.2845 118.608 70.7601 118.608C69.2356 118.608 68.0923 117.468 68.0923 115.949C68.0923 114.43 69.2356 113.29 70.7601 113.29C72.2845 113.29 73.4279 114.43 73.4279 115.949Z" fill="white"/>
<path d="M96.1676 115.949C96.1676 117.468 95.0243 118.608 93.4998 118.608C91.9754 118.608 90.832 117.468 90.832 115.949C90.832 114.43 91.9754 113.29 93.4998 113.29C94.8972 113.29 96.1676 114.43 96.1676 115.949Z" fill="white"/>
<path d="M118.908 115.949C118.908 117.468 117.765 118.608 116.24 118.608C114.716 118.608 113.572 117.468 113.572 115.949C113.572 114.43 114.716 113.29 116.24 113.29C117.765 113.29 118.908 114.43 118.908 115.949Z" fill="white"/>
<path d="M141.52 115.949C141.52 117.468 140.377 118.608 138.852 118.608C137.328 118.608 136.185 117.468 136.185 115.949C136.185 114.43 137.328 113.29 138.852 113.29C140.377 113.29 141.52 114.43 141.52 115.949Z" fill="white"/>
<path d="M5.3356 134.688C5.3356 136.208 4.19226 137.347 2.6678 137.347C1.14334 137.347 0 136.208 0 134.688C0 133.169 1.14334 132.029 2.6678 132.029C4.19226 132.029 5.3356 133.295 5.3356 134.688Z" fill="white"/>
<path d="M28.0753 134.688C28.0753 136.208 26.932 137.347 25.4075 137.347C23.8831 137.347 22.7397 136.208 22.7397 134.688C22.7397 133.169 23.8831 132.029 25.4075 132.029C26.805 132.029 28.0753 133.295 28.0753 134.688Z" fill="white"/>
<path d="M50.6881 134.688C50.6881 136.208 49.5448 137.347 48.0203 137.347C46.4959 137.347 45.3525 136.208 45.3525 134.688C45.3525 133.169 46.4959 132.029 48.0203 132.029C49.5448 132.029 50.6881 133.295 50.6881 134.688Z" fill="white"/>
<path d="M73.4279 134.688C73.4279 136.208 72.2845 137.347 70.7601 137.347C69.2356 137.347 68.0923 136.208 68.0923 134.688C68.0923 133.169 69.2356 132.029 70.7601 132.029C72.2845 132.029 73.4279 133.295 73.4279 134.688Z" fill="white"/>
<path d="M96.1676 134.688C96.1676 136.208 95.0243 137.347 93.4998 137.347C91.9754 137.347 90.832 136.208 90.832 134.688C90.832 133.169 91.9754 132.029 93.4998 132.029C94.8972 132.029 96.1676 133.295 96.1676 134.688Z" fill="white"/>
<path d="M118.908 134.688C118.908 136.208 117.765 137.347 116.24 137.347C114.716 137.347 113.572 136.208 113.572 134.688C113.572 133.169 114.716 132.029 116.24 132.029C117.765 132.029 118.908 133.295 118.908 134.688Z" fill="white"/>
<path d="M141.52 134.688C141.52 136.208 140.377 137.347 138.852 137.347C137.328 137.347 136.185 136.208 136.185 134.688C136.185 133.169 137.328 132.029 138.852 132.029C140.377 132.029 141.52 133.295 141.52 134.688Z" fill="white"/>
</g>
<defs>
<clipPath id="clip0_2234_8808">
<rect width="187" height="137" fill="white" transform="translate(0 0.347656)"/>
</clipPath>
</defs>
</svg>
