<svg width="288" height="287" viewBox="0 0 288 287" fill="none" xmlns="http://www.w3.org/2000/svg">
<g style="mix-blend-mode:multiply" opacity="0.12" clip-path="url(#clip0_2234_9664)">
<path d="M144.098 0C64.7155 0 0.5 64.2155 0.5 143.598C0.5 222.784 64.7155 287.197 144.098 287.197C223.284 287.197 287.697 222.981 287.697 143.598C287.5 64.2155 223.284 0 144.098 0ZM144.098 277.939C69.837 277.939 9.75806 217.86 9.75806 143.598C9.75806 69.337 69.837 9.25806 144.098 9.25806C218.36 9.25806 278.439 69.337 278.439 143.598C278.439 217.663 218.163 277.939 144.098 277.939Z" fill="#FFCF2D"/>
<path d="M144.1 30.9258C82.0509 30.9258 31.624 81.3527 31.624 143.401C31.624 205.45 82.0509 255.877 144.1 255.877C206.148 255.877 256.575 205.647 256.575 143.598C256.575 81.3527 206.148 30.9258 144.1 30.9258ZM144.1 238.74C91.506 238.74 48.7613 195.995 48.7613 143.401C48.7613 90.8077 91.506 48.063 144.1 48.063C196.693 48.063 239.438 90.8077 239.438 143.401C239.438 195.995 196.693 238.74 144.1 238.74Z" fill="#FFCF2D"/>
</g>
<defs>
<clipPath id="clip0_2234_9664">
<rect width="287" height="287" fill="white" transform="translate(0.5)"/>
</clipPath>
</defs>
</svg>
